<?xml version="1.0" encoding="UTF-8" standalone="no"?>
<!DOCTYPE svg PUBLIC "-//W3C//DTD SVG 1.1//EN"
 "http://www.w3.org/Graphics/SVG/1.1/DTD/svg11.dtd">
<!-- Generated by graphviz version 2.47.0 (20210316.0004)
 -->
<!-- Title: dependencies Pages: 1 -->
<svg width="734pt" height="355pt"
 viewBox="0.00 0.00 734.00 355.00" xmlns="http://www.w3.org/2000/svg" xmlns:xlink="http://www.w3.org/1999/xlink">
<g id="graph0" class="graph" transform="scale(1 1) rotate(0) translate(4 351)">
<title>dependencies</title>
<polygon fill="white" stroke="transparent" points="-4,4 -4,-351 730,-351 730,4 -4,4"/>
<text text-anchor="start" x="342.01" y="-42.4" font-family="Times-12" font-weight="bold" font-size="14.00">Legend</text>
<polygon fill="#ffffb3" stroke="transparent" points="129,-10 129,-30 149,-30 149,-10 129,-10"/>
<text text-anchor="start" x="152.63" y="-15.4" font-family="Times-12" font-size="14.00"> &#160;Declarations</text>
<polygon fill="#8dd3c7" stroke="transparent" points="242,-10 242,-30 262,-30 262,-10 242,-10"/>
<text text-anchor="start" x="265.73" y="-15.4" font-family="Times-12" font-size="14.00"> &#160;Module</text>
<polygon fill="#80b1d3" stroke="transparent" points="328,-10 328,-30 348,-30 348,-10 328,-10"/>
<text text-anchor="start" x="351.78" y="-15.4" font-family="Times-12" font-size="14.00"> &#160;Bootstrap</text>
<polygon fill="#fdb462" stroke="transparent" points="425,-10 425,-30 445,-30 445,-10 425,-10"/>
<text text-anchor="start" x="448.67" y="-15.4" font-family="Times-12" font-size="14.00"> &#160;Providers</text>
<polygon fill="#fb8072" stroke="transparent" points="521,-10 521,-30 541,-30 541,-10 521,-10"/>
<text text-anchor="start" x="544.73" y="-15.4" font-family="Times-12" font-size="14.00"> &#160;Exports</text>
<g id="clust7" class="cluster">
<title>cluster_AppModule</title>
<polygon fill="none" stroke="black" stroke-dasharray="1,5" points="196,-214 196,-339 424,-339 424,-214 196,-214"/>
</g>
<g id="clust9" class="cluster">
<title>cluster_AppModule_imports</title>
<polygon fill="none" stroke="black" points="204,-222 204,-274 416,-274 416,-222 204,-222"/>
</g>
<g id="clust13" class="cluster">
<title>cluster_AuthModule</title>
<polygon fill="none" stroke="black" stroke-dasharray="1,5" points="8,-70 8,-282 158,-282 158,-70 8,-70"/>
</g>
<g id="clust16" class="cluster">
<title>cluster_AuthModule_exports</title>
<polygon fill="none" stroke="black" points="37,-222 37,-274 143,-274 143,-222 37,-222"/>
</g>
<g id="clust18" class="cluster">
<title>cluster_AuthModule_providers</title>
<polygon fill="none" stroke="black" points="16,-78 16,-130 150,-130 150,-78 16,-78"/>
</g>
<g id="clust19" class="cluster">
<title>cluster_CoreModule</title>
<polygon fill="none" stroke="black" stroke-dasharray="1,5" points="166,-138 166,-206 554,-206 554,-138 166,-138"/>
</g>
<g id="clust21" class="cluster">
<title>cluster_CoreModule_imports</title>
<polygon fill="none" stroke="black" points="174,-146 174,-198 546,-198 546,-146 174,-146"/>
</g>
<g id="clust37" class="cluster">
<title>cluster_UsersModule</title>
<polygon fill="none" stroke="black" stroke-dasharray="1,5" points="562,-138 562,-206 718,-206 718,-138 562,-138"/>
</g>
<g id="clust42" class="cluster">
<title>cluster_UsersModule_providers</title>
<polygon fill="none" stroke="black" points="570,-146 570,-198 710,-198 710,-146 570,-146"/>
</g>
<!-- CoreModule -->
<g id="node1" class="node">
<title>CoreModule</title>
<polygon fill="#8dd3c7" stroke="black" points="408.26,-266 405.26,-270 384.26,-270 381.26,-266 321.74,-266 321.74,-230 408.26,-230 408.26,-266"/>
<text text-anchor="middle" x="365" y="-243.8" font-family="Times,serif" font-size="14.00">CoreModule</text>
</g>
<!-- AppModule -->
<g id="node3" class="node">
<title>AppModule</title>
<polygon fill="#8dd3c7" stroke="black" points="352.66,-331 349.66,-335 328.66,-335 325.66,-331 269.34,-331 269.34,-295 352.66,-295 352.66,-331"/>
<text text-anchor="middle" x="311" y="-308.8" font-family="Times,serif" font-size="14.00">AppModule</text>
</g>
<!-- CoreModule&#45;&gt;AppModule -->
<g id="edge1" class="edge">
<title>CoreModule&#45;&gt;AppModule</title>
<path fill="none" stroke="black" d="M337.22,-266.11C337.22,-266.11 337.22,-284.99 337.22,-284.99"/>
<polygon fill="black" stroke="black" points="333.72,-284.99 337.22,-294.99 340.72,-284.99 333.72,-284.99"/>
</g>
<!-- UsersModule -->
<g id="node2" class="node">
<title>UsersModule</title>
<polygon fill="#8dd3c7" stroke="black" points="303.92,-266 300.92,-270 279.92,-270 276.92,-266 212.08,-266 212.08,-230 303.92,-230 303.92,-266"/>
<text text-anchor="middle" x="258" y="-243.8" font-family="Times,serif" font-size="14.00">UsersModule</text>
</g>
<!-- UsersModule&#45;&gt;AppModule -->
<g id="edge2" class="edge">
<title>UsersModule&#45;&gt;AppModule</title>
<path fill="none" stroke="black" d="M286.44,-266.11C286.44,-266.11 286.44,-284.99 286.44,-284.99"/>
<polygon fill="black" stroke="black" points="282.94,-284.99 286.44,-294.99 289.94,-284.99 282.94,-284.99"/>
</g>
<!-- AuthService  -->
<g id="node4" class="node">
<title>AuthService </title>
<polygon fill="#fb8072" stroke="black" points="134.98,-266 45.02,-266 45.02,-230 134.98,-230 134.98,-266"/>
<text text-anchor="middle" x="90" y="-243.8" font-family="Times,serif" font-size="14.00">AuthService </text>
</g>
<!-- AuthModule -->
<g id="node5" class="node">
<title>AuthModule</title>
<polygon fill="#8dd3c7" stroke="black" points="133.55,-190 130.55,-194 109.55,-194 106.55,-190 46.45,-190 46.45,-154 133.55,-154 133.55,-190"/>
<text text-anchor="middle" x="90" y="-167.8" font-family="Times,serif" font-size="14.00">AuthModule</text>
</g>
<!-- AuthModule&#45;&gt;UsersModule -->
<g id="edge8" class="edge">
<title>AuthModule&#45;&gt;UsersModule</title>
<path fill="none" stroke="black" d="M133.69,-172C136.67,-172 138.52,-172 138.52,-172 138.52,-172 138.52,-248 138.52,-248 138.52,-248 202.15,-248 202.15,-248"/>
<polygon fill="black" stroke="black" points="202.15,-251.5 212.15,-248 202.15,-244.5 202.15,-251.5"/>
</g>
<!-- AuthModule&#45;&gt;AuthService  -->
<g id="edge3" class="edge">
<title>AuthModule&#45;&gt;AuthService </title>
<path fill="none" stroke="black" stroke-dasharray="5,2" d="M90,-190.01C90,-190.01 90,-219.85 90,-219.85"/>
<polygon fill="black" stroke="black" points="86.5,-219.85 90,-229.85 93.5,-219.85 86.5,-219.85"/>
</g>
<!-- AuthService -->
<g id="node6" class="node">
<title>AuthService</title>
<ellipse fill="#fdb462" stroke="black" cx="83" cy="-104" rx="59.11" ry="18"/>
<text text-anchor="middle" x="83" y="-99.8" font-family="Times,serif" font-size="14.00">AuthService</text>
</g>
<!-- AuthService&#45;&gt;AuthModule -->
<g id="edge4" class="edge">
<title>AuthService&#45;&gt;AuthModule</title>
<path fill="none" stroke="black" d="M90,-122.22C90,-122.22 90,-143.73 90,-143.73"/>
<polygon fill="black" stroke="black" points="86.5,-143.73 90,-153.73 93.5,-143.73 86.5,-143.73"/>
</g>
<!-- AppI18nModule -->
<g id="node7" class="node">
<title>AppI18nModule</title>
<polygon fill="#8dd3c7" stroke="black" points="419.82,-190 416.82,-194 395.82,-194 392.82,-190 310.18,-190 310.18,-154 419.82,-154 419.82,-190"/>
<text text-anchor="middle" x="365" y="-167.8" font-family="Times,serif" font-size="14.00">AppI18nModule</text>
</g>
<!-- AppI18nModule&#45;&gt;CoreModule -->
<g id="edge5" class="edge">
<title>AppI18nModule&#45;&gt;CoreModule</title>
<path fill="none" stroke="black" d="M379.46,-190.01C379.46,-190.01 379.46,-219.85 379.46,-219.85"/>
<polygon fill="black" stroke="black" points="375.96,-219.85 379.46,-229.85 382.96,-219.85 375.96,-219.85"/>
</g>
<!-- DatabaseModule -->
<g id="node8" class="node">
<title>DatabaseModule</title>
<polygon fill="#8dd3c7" stroke="black" points="292.35,-190 289.35,-194 268.35,-194 265.35,-190 181.65,-190 181.65,-154 292.35,-154 292.35,-190"/>
<text text-anchor="middle" x="237" y="-167.8" font-family="Times,serif" font-size="14.00">DatabaseModule</text>
</g>
<!-- DatabaseModule&#45;&gt;CoreModule -->
<g id="edge6" class="edge">
<title>DatabaseModule&#45;&gt;CoreModule</title>
<path fill="none" stroke="black" d="M252.36,-190.04C252.36,-202.56 252.36,-217 252.36,-217 252.36,-217 350.54,-217 350.54,-217 350.54,-217 350.54,-219.97 350.54,-219.97"/>
<polygon fill="black" stroke="black" points="347.04,-219.97 350.54,-229.97 354.04,-219.97 347.04,-219.97"/>
</g>
<!-- LoggerModule -->
<g id="node9" class="node">
<title>LoggerModule</title>
<polygon fill="#8dd3c7" stroke="black" points="537.98,-190 534.98,-194 513.98,-194 510.98,-190 438.02,-190 438.02,-154 537.98,-154 537.98,-190"/>
<text text-anchor="middle" x="488" y="-167.8" font-family="Times,serif" font-size="14.00">LoggerModule</text>
</g>
<!-- LoggerModule&#45;&gt;CoreModule -->
<g id="edge7" class="edge">
<title>LoggerModule&#45;&gt;CoreModule</title>
<path fill="none" stroke="black" d="M488,-190.01C488,-212.49 488,-248 488,-248 488,-248 418.37,-248 418.37,-248"/>
<polygon fill="black" stroke="black" points="418.37,-244.5 408.37,-248 418.37,-251.5 418.37,-244.5"/>
</g>
<!-- UsersService -->
<g id="node10" class="node">
<title>UsersService</title>
<ellipse fill="#fdb462" stroke="black" cx="640" cy="-172" rx="61.95" ry="18"/>
<text text-anchor="middle" x="640" y="-167.8" font-family="Times,serif" font-size="14.00">UsersService</text>
</g>
<!-- UsersService&#45;&gt;UsersModule -->
<g id="edge9" class="edge">
<title>UsersService&#45;&gt;UsersModule</title>
<path fill="none" stroke="black" d="M640,-190.24C640,-197.43 640,-204 640,-204 640,-204 298.07,-204 298.07,-204 298.07,-204 298.07,-219.85 298.07,-219.85"/>
<polygon fill="black" stroke="black" points="294.57,-219.85 298.07,-229.85 301.57,-219.85 294.57,-219.85"/>
</g>
</g>
</svg>
